# xmcd CD database file
#
# Track frame offsets:
#	150
#	21943
#	44767
#	65163
#	86326
#	107541
#	130804
#	148031
#	172948
#	197381
#	220484
#	243771
#	264345
#	289565
#	307499
#	328595
#
# Disc length: 4658 seconds
#
# Revision: 14
# Processed by: cddbd v1.5.1PL2 Copyright (c) Steve Scherf et al.
# Submitted via: CDex 1.51
#
DISCID=ec123010
DTITLE=槇原敬之 - SMILING〜THE BEST OF NORIYUKI MAKIHARA〜
DYEAR=1997
DGENRE=Japanese Pop
TTITLE0=No.1
TTITLE1=どんなときも。
TTITLE2=もう恋なんてしない
TTITLE3=2つの願い
TTITLE4=NG
TTITLE5=MILK
TTITLE6=冬がはじまるよ
TTITLE7=北風〜君にとどきますように〜
TTITLE8=彼女の恋人
TTITLE9=ANSWER
TTITLE10=僕の彼女はウェイトレス
TTITLE11=SPY
TTITLE12=ズル休み
TTITLE13=どうしようもない僕に天使が降りてきた
TTITLE14=雪に願いを
TTITLE15=遠く遠く
EXTD=YEAR: 1997
EXTT0=
EXTT1=
EXTT2=
EXTT3=
EXTT4=
EXTT5=
EXTT6=
EXTT7=
EXTT8=
EXTT9=
EXTT10=
EXTT11=
EXTT12=
EXTT13=
EXTT14=
EXTT15=
PLAYORDER=
